{
	"patcher" : 	{
		"fileversion" : 1,
		"appversion" : 		{
			"major" : 8,
			"minor" : 0,
			"revision" : 1,
			"architecture" : "x64",
			"modernui" : 1
		}
,
		"classnamespace" : "box",
		"rect" : [ 179.0, 106.0, 1203.0, 723.0 ],
		"bglocked" : 0,
		"openinpresentation" : 0,
		"default_fontsize" : 12.0,
		"default_fontface" : 0,
		"default_fontname" : "Arial",
		"gridonopen" : 1,
		"gridsize" : [ 15.0, 15.0 ],
		"gridsnaponopen" : 1,
		"objectsnaponopen" : 1,
		"statusbarvisible" : 2,
		"toolbarvisible" : 1,
		"lefttoolbarpinned" : 0,
		"toptoolbarpinned" : 0,
		"righttoolbarpinned" : 0,
		"bottomtoolbarpinned" : 0,
		"toolbars_unpinned_last_save" : 0,
		"tallnewobj" : 0,
		"boxanimatetime" : 200,
		"enablehscroll" : 1,
		"enablevscroll" : 1,
		"devicewidth" : 0.0,
		"description" : "",
		"digest" : "",
		"tags" : "",
		"style" : "",
		"subpatcher_template" : "",
		"boxes" : [ 			{
				"box" : 				{
					"id" : "obj-33",
					"maxclass" : "newobj",
					"numinlets" : 2,
					"numoutlets" : 1,
					"outlettype" : [ "signal" ],
					"patching_rect" : [ 821.0, 84.0, 34.0, 22.0 ],
					"text" : "*~ 1."
				}

			}
, 			{
				"box" : 				{
					"id" : "obj-29",
					"maxclass" : "newobj",
					"numinlets" : 1,
					"numoutlets" : 2,
					"outlettype" : [ "signal", "signal" ],
					"patching_rect" : [ 1089.0, 330.0, 70.0, 22.0 ],
					"text" : "&&softcut 7"
				}

			}
, 			{
				"box" : 				{
					"id" : "obj-30",
					"maxclass" : "newobj",
					"numinlets" : 1,
					"numoutlets" : 2,
					"outlettype" : [ "signal", "signal" ],
					"patching_rect" : [ 1046.0, 172.0, 70.0, 22.0 ],
					"text" : "&&softcut 6"
				}

			}
, 			{
				"box" : 				{
					"id" : "obj-31",
					"maxclass" : "newobj",
					"numinlets" : 1,
					"numoutlets" : 2,
					"outlettype" : [ "signal", "signal" ],
					"patching_rect" : [ 978.0, 275.0, 70.0, 22.0 ],
					"text" : "&&softcut 5"
				}

			}
, 			{
				"box" : 				{
					"id" : "obj-32",
					"maxclass" : "newobj",
					"numinlets" : 1,
					"numoutlets" : 2,
					"outlettype" : [ "signal", "signal" ],
					"patching_rect" : [ 899.0, 185.0, 70.0, 22.0 ],
					"text" : "&&softcut 4"
				}

			}
, 			{
				"box" : 				{
					"id" : "obj-28",
					"maxclass" : "newobj",
					"numinlets" : 1,
					"numoutlets" : 2,
					"outlettype" : [ "signal", "signal" ],
					"patching_rect" : [ 851.0, 268.0, 70.0, 22.0 ],
					"text" : "&&softcut 3"
				}

			}
, 			{
				"box" : 				{
					"id" : "obj-27",
					"maxclass" : "newobj",
					"numinlets" : 1,
					"numoutlets" : 2,
					"outlettype" : [ "signal", "signal" ],
					"patching_rect" : [ 734.0, 210.0, 70.0, 22.0 ],
					"text" : "&&softcut 2"
				}

			}
, 			{
				"box" : 				{
					"id" : "obj-26",
					"maxclass" : "newobj",
					"numinlets" : 1,
					"numoutlets" : 2,
					"outlettype" : [ "signal", "signal" ],
					"patching_rect" : [ 601.0, 335.0, 70.0, 22.0 ],
					"text" : "&&softcut 1"
				}

			}
, 			{
				"box" : 				{
					"id" : "obj-25",
					"maxclass" : "newobj",
					"numinlets" : 2,
					"numoutlets" : 0,
					"patching_rect" : [ 796.0, 547.0, 35.0, 22.0 ],
					"text" : "dac~"
				}

			}
, 			{
				"box" : 				{
					"id" : "obj-24",
					"maxclass" : "newobj",
					"numinlets" : 1,
					"numoutlets" : 2,
					"outlettype" : [ "signal", "signal" ],
					"patching_rect" : [ 809.0, 22.0, 35.0, 22.0 ],
					"text" : "adc~"
				}

			}
, 			{
				"box" : 				{
					"id" : "obj-16",
					"maxclass" : "button",
					"numinlets" : 1,
					"numoutlets" : 1,
					"outlettype" : [ "bang" ],
					"parameter_enable" : 0,
					"patching_rect" : [ 349.0, 172.0, 24.0, 24.0 ]
				}

			}
, 			{
				"box" : 				{
					"id" : "obj-19",
					"maxclass" : "newobj",
					"numinlets" : 0,
					"numoutlets" : 1,
					"outlettype" : [ "" ],
					"patching_rect" : [ 444.54656982421875, 35.0, 100.0, 22.0 ],
					"text" : "r &&diction_bang"
				}

			}
, 			{
				"box" : 				{
					"id" : "obj-17",
					"maxclass" : "button",
					"numinlets" : 1,
					"numoutlets" : 1,
					"outlettype" : [ "bang" ],
					"parameter_enable" : 0,
					"patching_rect" : [ 482.54656982421875, 71.0, 24.0, 24.0 ]
				}

			}
, 			{
				"box" : 				{
					"id" : "obj-11",
					"linecount" : 2,
					"maxclass" : "message",
					"numinlets" : 2,
					"numoutlets" : 1,
					"outlettype" : [ "" ],
					"patching_rect" : [ 278.54656982421875, 71.0, 185.0, 35.0 ],
					"text" : "{\\\"softcut\\\":[{\\\"active\\\":0\\,\\\"presets\\\":[{\\\"position\\\":0}]}]}"
				}

			}
, 			{
				"box" : 				{
					"id" : "obj-4",
					"maxclass" : "newobj",
					"numinlets" : 1,
					"numoutlets" : 0,
					"patching_rect" : [ 258.04656982421875, 268.0, 102.0, 22.0 ],
					"text" : "s &&diction_bang"
				}

			}
, 			{
				"box" : 				{
					"id" : "obj-3",
					"maxclass" : "newobj",
					"numinlets" : 2,
					"numoutlets" : 2,
					"outlettype" : [ "", "" ],
					"patching_rect" : [ 258.04656982421875, 232.0, 107.0, 22.0 ],
					"text" : "route diction_bang"
				}

			}
, 			{
				"box" : 				{
					"id" : "obj-1",
					"maxclass" : "newobj",
					"numinlets" : 2,
					"numoutlets" : 2,
					"outlettype" : [ "", "" ],
					"patching_rect" : [ 46.046585083007812, 201.0, 97.0, 22.0 ],
					"text" : "route diction_out"
				}

			}
, 			{
				"box" : 				{
					"id" : "obj-23",
					"maxclass" : "newobj",
					"numinlets" : 1,
					"numoutlets" : 2,
					"outlettype" : [ "signal", "signal" ],
					"patching_rect" : [ 614.0, 196.0, 70.0, 22.0 ],
					"text" : "&&softcut 0"
				}

			}
, 			{
				"box" : 				{
					"id" : "obj-22",
					"maxclass" : "newobj",
					"numinlets" : 1,
					"numoutlets" : 1,
					"outlettype" : [ "bang" ],
					"patching_rect" : [ 245.0, 196.0, 58.0, 22.0 ],
					"text" : "loadbang"
				}

			}
, 			{
				"box" : 				{
					"id" : "obj-20",
					"maxclass" : "message",
					"numinlets" : 2,
					"numoutlets" : 1,
					"outlettype" : [ "" ],
					"patching_rect" : [ 193.0, 237.0, 29.5, 22.0 ],
					"text" : "1"
				}

			}
, 			{
				"box" : 				{
					"id" : "obj-18",
					"maxclass" : "newobj",
					"numinlets" : 1,
					"numoutlets" : 2,
					"outlettype" : [ "bang", "bang" ],
					"patching_rect" : [ 193.0, 164.0, 29.5, 22.0 ],
					"text" : "b"
				}

			}
, 			{
				"box" : 				{
					"id" : "obj-14",
					"maxclass" : "newobj",
					"numinlets" : 2,
					"numoutlets" : 1,
					"outlettype" : [ "bang" ],
					"patching_rect" : [ 193.0, 196.0, 41.0, 22.0 ],
					"text" : "del 10"
				}

			}
, 			{
				"box" : 				{
					"id" : "obj-13",
					"maxclass" : "message",
					"numinlets" : 2,
					"numoutlets" : 1,
					"outlettype" : [ "" ],
					"patching_rect" : [ 130.546585083007812, 243.0, 29.5, 22.0 ],
					"text" : "0"
				}

			}
, 			{
				"box" : 				{
					"id" : "obj-10",
					"maxclass" : "newobj",
					"numinlets" : 2,
					"numoutlets" : 1,
					"outlettype" : [ "" ],
					"patching_rect" : [ 146.546585083007812, 77.0, 32.0, 22.0 ],
					"text" : "gate"
				}

			}
, 			{
				"box" : 				{
					"id" : "obj-8",
					"linecount" : 30,
					"maxclass" : "message",
					"numinlets" : 2,
					"numoutlets" : 1,
					"outlettype" : [ "" ],
					"patching_rect" : [ 46.046585083007812, 330.0, 434.0, 411.0 ],
					"text" : "{\\\"softcut\\\":[{\\\"active\\\":0\\,\\\"presets\\\":[{\\\"rec\\\":0\\,\\\"play\\\":0\\,\\\"rate\\\":1\\,\\\"rate_offset\\\":0\\,\\\"rec_level\\\":1\\,\\\"pre_level\\\":0.5\\,\\\"voice_sync\\\":\\\"-\\\"\\,\\\"buffer\\\":\\\"&&buf_0\\\"\\,\\\"level_slew_time\\\":0\\,\\\"rate_slew_time\\\":0\\,\\\"phase_quant\\\":\\\"-\\\"\\,\\\"fade_time\\\":0.032\\,\\\"loop_start\\\":0\\,\\\"loop_end\\\":0\\,\\\"loop\\\":1\\,\\\"pan\\\":0.5\\,\\\"level\\\":1}]}\\,{\\\"active\\\":0\\,\\\"presets\\\":[{\\\"rec\\\":0\\,\\\"play\\\":0\\,\\\"rate\\\":1\\,\\\"rate_offset\\\":0\\,\\\"rec_level\\\":1\\,\\\"pre_level\\\":0.5\\,\\\"voice_sync\\\":\\\"-\\\"\\,\\\"buffer\\\":\\\"&&buf_1\\\"\\,\\\"level_slew_time\\\":0\\,\\\"rate_slew_time\\\":0\\,\\\"phase_quant\\\":\\\"-\\\"\\,\\\"fade_time\\\":0.032\\,\\\"loop_start\\\":0\\,\\\"loop_end\\\":0\\,\\\"loop\\\":1\\,\\\"pan\\\":0.5\\,\\\"level\\\":1}]}\\,{\\\"active\\\":0\\,\\\"presets\\\":[{\\\"rec\\\":0\\,\\\"play\\\":0\\,\\\"rate\\\":1\\,\\\"rate_offset\\\":0\\,\\\"rec_level\\\":1\\,\\\"pre_level\\\":0.5\\,\\\"voice_sync\\\":\\\"-\\\"\\,\\\"buffer\\\":\\\"&&buf_2\\\"\\,\\\"level_slew_time\\\":0\\,\\\"rate_slew_time\\\":0\\,\\\"phase_quant\\\":\\\"-\\\"\\,\\\"fade_time\\\":0.032\\,\\\"loop_start\\\":0\\,\\\"loop_end\\\":0\\,\\\"loop\\\":1\\,\\\"pan\\\":0.5\\,\\\"level\\\":1}]}\\,{\\\"active\\\":0\\,\\\"presets\\\":[{\\\"rec\\\":0\\,\\\"play\\\":0\\,\\\"rate\\\":1\\,\\\"rate_offset\\\":0\\,\\\"rec_level\\\":1\\,\\\"pre_level\\\":0.5\\,\\\"voice_sync\\\":\\\"-\\\"\\,\\\"buffer\\\":\\\"&&buf_3\\\"\\,\\\"level_slew_time\\\":0\\,\\\"rate_slew_time\\\":0\\,\\\"phase_quant\\\":\\\"-\\\"\\,\\\"fade_time\\\":0.032\\,\\\"loop_start\\\":0\\,\\\"loop_end\\\":0\\,\\\"loop\\\":1\\,\\\"pan\\\":0.5\\,\\\"level\\\":1}]}\\,{\\\"active\\\":0\\,\\\"presets\\\":[{\\\"rec\\\":0\\,\\\"play\\\":0\\,\\\"rate\\\":1\\,\\\"rate_offset\\\":0\\,\\\"rec_level\\\":1\\,\\\"pre_level\\\":0.5\\,\\\"voice_sync\\\":\\\"-\\\"\\,\\\"buffer\\\":\\\"&&buf_0\\\"\\,\\\"level_slew_time\\\":0\\,\\\"rate_slew_time\\\":0\\,\\\"phase_quant\\\":\\\"-\\\"\\,\\\"fade_time\\\":0.032\\,\\\"loop_start\\\":0\\,\\\"loop_end\\\":0\\,\\\"loop\\\":1\\,\\\"pan\\\":0.5\\,\\\"level\\\":1}]}\\,{\\\"active\\\":0\\,\\\"presets\\\":[{\\\"rec\\\":0\\,\\\"play\\\":0\\,\\\"rate\\\":1\\,\\\"rate_offset\\\":0\\,\\\"rec_level\\\":1\\,\\\"pre_level\\\":0.5\\,\\\"voice_sync\\\":\\\"-\\\"\\,\\\"buffer\\\":\\\"&&buf_1\\\"\\,\\\"level_slew_time\\\":0\\,\\\"rate_slew_time\\\":0\\,\\\"phase_quant\\\":\\\"-\\\"\\,\\\"fade_time\\\":0.032\\,\\\"loop_start\\\":0\\,\\\"loop_end\\\":0\\,\\\"loop\\\":1\\,\\\"pan\\\":0.5\\,\\\"level\\\":1}]}\\,{\\\"active\\\":0\\,\\\"presets\\\":[{\\\"rec\\\":0\\,\\\"play\\\":0\\,\\\"rate\\\":1\\,\\\"rate_offset\\\":0\\,\\\"rec_level\\\":1\\,\\\"pre_level\\\":0.5\\,\\\"voice_sync\\\":\\\"-\\\"\\,\\\"buffer\\\":\\\"&&buf_2\\\"\\,\\\"level_slew_time\\\":0\\,\\\"rate_slew_time\\\":0\\,\\\"phase_quant\\\":\\\"-\\\"\\,\\\"fade_time\\\":0.032\\,\\\"loop_start\\\":0\\,\\\"loop_end\\\":0\\,\\\"loop\\\":1\\,\\\"pan\\\":0.5\\,\\\"level\\\":1}]}\\,{\\\"active\\\":0\\,\\\"presets\\\":[{\\\"rec\\\":0\\,\\\"play\\\":0\\,\\\"rate\\\":1\\,\\\"rate_offset\\\":0\\,\\\"rec_level\\\":1\\,\\\"pre_level\\\":0.5\\,\\\"voice_sync\\\":\\\"-\\\"\\,\\\"buffer\\\":\\\"&&buf_3\\\"\\,\\\"level_slew_time\\\":0\\,\\\"rate_slew_time\\\":0\\,\\\"phase_quant\\\":\\\"-\\\"\\,\\\"fade_time\\\":0.032\\,\\\"loop_start\\\":0\\,\\\"loop_end\\\":0\\,\\\"loop\\\":1\\,\\\"pan\\\":0.5\\,\\\"level\\\":1}]}]}"
				}

			}
, 			{
				"box" : 				{
					"id" : "obj-21",
					"maxclass" : "newobj",
					"numinlets" : 0,
					"numoutlets" : 1,
					"outlettype" : [ "" ],
					"patching_rect" : [ 461.04656982421875, 294.0, 67.0, 22.0 ],
					"text" : "r &&diction"
				}

			}
, 			{
				"box" : 				{
					"id" : "obj-15",
					"maxclass" : "newobj",
					"numinlets" : 0,
					"numoutlets" : 1,
					"outlettype" : [ "" ],
					"patching_rect" : [ 159.546585083007812, 35.0, 67.0, 22.0 ],
					"text" : "r &&diction"
				}

			}
, 			{
				"box" : 				{
					"id" : "obj-12",
					"maxclass" : "newobj",
					"numinlets" : 1,
					"numoutlets" : 1,
					"outlettype" : [ "" ],
					"patching_rect" : [ 146.546585083007812, 113.0, 107.0, 22.0 ],
					"text" : "prepend diction_in"
				}

			}
, 			{
				"box" : 				{
					"id" : "obj-7",
					"maxclass" : "newobj",
					"numinlets" : 1,
					"numoutlets" : 0,
					"patching_rect" : [ 46.046585083007812, 268.0, 69.0, 22.0 ],
					"text" : "s &&diction"
				}

			}
, 			{
				"box" : 				{
					"bgmode" : 0,
					"border" : 0,
					"clickthrough" : 0,
					"enablehscroll" : 0,
					"enablevscroll" : 0,
					"id" : "obj-2",
					"lockeddragscroll" : 0,
					"maxclass" : "bpatcher",
					"name" : "grid-js.maxpat",
					"numinlets" : 1,
					"numoutlets" : 1,
					"offset" : [ 0.0, 0.0 ],
					"outlettype" : [ "" ],
					"patching_rect" : [ 46.046585083007812, 164.0, 120.0, 19.0 ],
					"viewvisibility" : 1
				}

			}
, 			{
				"box" : 				{
					"id" : "obj-9",
					"maxclass" : "message",
					"numinlets" : 2,
					"numoutlets" : 1,
					"outlettype" : [ "" ],
					"patching_rect" : [ 46.046585083007812, 59.0, 50.0, 22.0 ],
					"text" : "compile"
				}

			}
, 			{
				"box" : 				{
					"id" : "obj-5",
					"maxclass" : "message",
					"numinlets" : 2,
					"numoutlets" : 1,
					"outlettype" : [ "" ],
					"patching_rect" : [ 104.046585083007812, 59.0, 35.0, 22.0 ],
					"text" : "open"
				}

			}
 ],
		"lines" : [ 			{
				"patchline" : 				{
					"destination" : [ "obj-13", 0 ],
					"order" : 0,
					"source" : [ "obj-1", 0 ]
				}

			}
, 			{
				"patchline" : 				{
					"destination" : [ "obj-7", 0 ],
					"order" : 1,
					"source" : [ "obj-1", 0 ]
				}

			}
, 			{
				"patchline" : 				{
					"destination" : [ "obj-12", 0 ],
					"source" : [ "obj-10", 0 ]
				}

			}
, 			{
				"patchline" : 				{
					"destination" : [ "obj-16", 0 ],
					"order" : 0,
					"source" : [ "obj-12", 0 ]
				}

			}
, 			{
				"patchline" : 				{
					"destination" : [ "obj-2", 0 ],
					"order" : 1,
					"source" : [ "obj-12", 0 ]
				}

			}
, 			{
				"patchline" : 				{
					"destination" : [ "obj-10", 0 ],
					"order" : 1,
					"source" : [ "obj-13", 0 ]
				}

			}
, 			{
				"patchline" : 				{
					"destination" : [ "obj-18", 0 ],
					"order" : 0,
					"source" : [ "obj-13", 0 ]
				}

			}
, 			{
				"patchline" : 				{
					"destination" : [ "obj-20", 0 ],
					"source" : [ "obj-14", 0 ]
				}

			}
, 			{
				"patchline" : 				{
					"destination" : [ "obj-10", 1 ],
					"source" : [ "obj-15", 0 ]
				}

			}
, 			{
				"patchline" : 				{
					"destination" : [ "obj-14", 0 ],
					"source" : [ "obj-18", 0 ]
				}

			}
, 			{
				"patchline" : 				{
					"destination" : [ "obj-11", 1 ],
					"order" : 1,
					"source" : [ "obj-19", 0 ]
				}

			}
, 			{
				"patchline" : 				{
					"destination" : [ "obj-17", 0 ],
					"order" : 0,
					"source" : [ "obj-19", 0 ]
				}

			}
, 			{
				"patchline" : 				{
					"destination" : [ "obj-1", 0 ],
					"order" : 1,
					"source" : [ "obj-2", 0 ]
				}

			}
, 			{
				"patchline" : 				{
					"destination" : [ "obj-3", 0 ],
					"order" : 0,
					"source" : [ "obj-2", 0 ]
				}

			}
, 			{
				"patchline" : 				{
					"destination" : [ "obj-10", 0 ],
					"source" : [ "obj-20", 0 ]
				}

			}
, 			{
				"patchline" : 				{
					"destination" : [ "obj-8", 1 ],
					"source" : [ "obj-21", 0 ]
				}

			}
, 			{
				"patchline" : 				{
					"destination" : [ "obj-20", 0 ],
					"source" : [ "obj-22", 0 ]
				}

			}
, 			{
				"patchline" : 				{
					"destination" : [ "obj-25", 1 ],
					"source" : [ "obj-23", 1 ]
				}

			}
, 			{
				"patchline" : 				{
					"destination" : [ "obj-25", 0 ],
					"source" : [ "obj-23", 0 ]
				}

			}
, 			{
				"patchline" : 				{
					"destination" : [ "obj-25", 1 ],
					"order" : 1,
					"source" : [ "obj-24", 1 ]
				}

			}
, 			{
				"patchline" : 				{
					"destination" : [ "obj-25", 0 ],
					"order" : 1,
					"source" : [ "obj-24", 0 ]
				}

			}
, 			{
				"patchline" : 				{
					"destination" : [ "obj-33", 0 ],
					"order" : 0,
					"source" : [ "obj-24", 1 ]
				}

			}
, 			{
				"patchline" : 				{
					"destination" : [ "obj-33", 0 ],
					"order" : 0,
					"source" : [ "obj-24", 0 ]
				}

			}
, 			{
				"patchline" : 				{
					"destination" : [ "obj-25", 1 ],
					"source" : [ "obj-26", 1 ]
				}

			}
, 			{
				"patchline" : 				{
					"destination" : [ "obj-25", 0 ],
					"source" : [ "obj-26", 0 ]
				}

			}
, 			{
				"patchline" : 				{
					"destination" : [ "obj-25", 1 ],
					"source" : [ "obj-27", 1 ]
				}

			}
, 			{
				"patchline" : 				{
					"destination" : [ "obj-25", 0 ],
					"source" : [ "obj-27", 0 ]
				}

			}
, 			{
				"patchline" : 				{
					"destination" : [ "obj-25", 1 ],
					"source" : [ "obj-28", 1 ]
				}

			}
, 			{
				"patchline" : 				{
					"destination" : [ "obj-25", 0 ],
					"source" : [ "obj-28", 0 ]
				}

			}
, 			{
				"patchline" : 				{
					"destination" : [ "obj-25", 1 ],
					"source" : [ "obj-29", 1 ]
				}

			}
, 			{
				"patchline" : 				{
					"destination" : [ "obj-25", 0 ],
					"source" : [ "obj-29", 0 ]
				}

			}
, 			{
				"patchline" : 				{
					"destination" : [ "obj-4", 0 ],
					"source" : [ "obj-3", 0 ]
				}

			}
, 			{
				"patchline" : 				{
					"destination" : [ "obj-25", 1 ],
					"source" : [ "obj-30", 1 ]
				}

			}
, 			{
				"patchline" : 				{
					"destination" : [ "obj-25", 0 ],
					"source" : [ "obj-30", 0 ]
				}

			}
, 			{
				"patchline" : 				{
					"destination" : [ "obj-25", 1 ],
					"source" : [ "obj-31", 1 ]
				}

			}
, 			{
				"patchline" : 				{
					"destination" : [ "obj-25", 0 ],
					"source" : [ "obj-31", 0 ]
				}

			}
, 			{
				"patchline" : 				{
					"destination" : [ "obj-25", 1 ],
					"source" : [ "obj-32", 1 ]
				}

			}
, 			{
				"patchline" : 				{
					"destination" : [ "obj-25", 0 ],
					"source" : [ "obj-32", 0 ]
				}

			}
, 			{
				"patchline" : 				{
					"destination" : [ "obj-23", 0 ],
					"order" : 6,
					"source" : [ "obj-33", 0 ]
				}

			}
, 			{
				"patchline" : 				{
					"destination" : [ "obj-26", 0 ],
					"order" : 7,
					"source" : [ "obj-33", 0 ]
				}

			}
, 			{
				"patchline" : 				{
					"destination" : [ "obj-27", 0 ],
					"order" : 5,
					"source" : [ "obj-33", 0 ]
				}

			}
, 			{
				"patchline" : 				{
					"destination" : [ "obj-28", 0 ],
					"order" : 4,
					"source" : [ "obj-33", 0 ]
				}

			}
, 			{
				"patchline" : 				{
					"destination" : [ "obj-29", 0 ],
					"order" : 0,
					"source" : [ "obj-33", 0 ]
				}

			}
, 			{
				"patchline" : 				{
					"destination" : [ "obj-30", 0 ],
					"order" : 1,
					"source" : [ "obj-33", 0 ]
				}

			}
, 			{
				"patchline" : 				{
					"destination" : [ "obj-31", 0 ],
					"order" : 2,
					"source" : [ "obj-33", 0 ]
				}

			}
, 			{
				"patchline" : 				{
					"destination" : [ "obj-32", 0 ],
					"order" : 3,
					"source" : [ "obj-33", 0 ]
				}

			}
, 			{
				"patchline" : 				{
					"destination" : [ "obj-2", 0 ],
					"source" : [ "obj-5", 0 ]
				}

			}
, 			{
				"patchline" : 				{
					"destination" : [ "obj-2", 0 ],
					"source" : [ "obj-9", 0 ]
				}

			}
 ],
		"dependency_cache" : [ 			{
				"name" : "grid-js.maxpat",
				"bootpath" : "~/Documents/code/anachronism",
				"patcherrelativepath" : ".",
				"type" : "JSON",
				"implicit" : 1
			}
, 			{
				"name" : "script.js",
				"bootpath" : "~/Documents/code/anachronism",
				"patcherrelativepath" : ".",
				"type" : "TEXT",
				"implicit" : 1
			}
, 			{
				"name" : "&&softcut.maxpat",
				"bootpath" : "~/Documents/code/anachronism",
				"patcherrelativepath" : ".",
				"type" : "JSON",
				"implicit" : 1
			}
, 			{
				"name" : "softcut.js",
				"bootpath" : "~/Documents/code/anachronism",
				"patcherrelativepath" : ".",
				"type" : "TEXT",
				"implicit" : 1
			}
, 			{
				"name" : "pan2.maxpat",
				"bootpath" : "~/Library/Application Support/Cycling '74/Max 8/Examples/spatialization/panning/lib",
				"patcherrelativepath" : "../../../Library/Application Support/Cycling '74/Max 8/Examples/spatialization/panning/lib",
				"type" : "JSON",
				"implicit" : 1
			}
, 			{
				"name" : "softcut~.mxo",
				"type" : "iLaX"
			}
 ],
		"autosave" : 0
	}

}
