{
	"patcher" : 	{
		"fileversion" : 1,
		"appversion" : 		{
			"major" : 8,
			"minor" : 0,
			"revision" : 1,
			"architecture" : "x64",
			"modernui" : 1
		}
,
		"classnamespace" : "box",
		"rect" : [ 402.0, 94.0, 717.0, 744.0 ],
		"bglocked" : 0,
		"openinpresentation" : 0,
		"default_fontsize" : 12.0,
		"default_fontface" : 0,
		"default_fontname" : "Arial",
		"gridonopen" : 1,
		"gridsize" : [ 15.0, 15.0 ],
		"gridsnaponopen" : 1,
		"objectsnaponopen" : 1,
		"statusbarvisible" : 2,
		"toolbarvisible" : 1,
		"lefttoolbarpinned" : 0,
		"toptoolbarpinned" : 0,
		"righttoolbarpinned" : 0,
		"bottomtoolbarpinned" : 0,
		"toolbars_unpinned_last_save" : 0,
		"tallnewobj" : 0,
		"boxanimatetime" : 200,
		"enablehscroll" : 1,
		"enablevscroll" : 1,
		"devicewidth" : 0.0,
		"description" : "",
		"digest" : "",
		"tags" : "",
		"style" : "",
		"subpatcher_template" : "",
		"boxes" : [ 			{
				"box" : 				{
					"id" : "obj-16",
					"linecount" : 2,
					"maxclass" : "message",
					"numinlets" : 2,
					"numoutlets" : 1,
					"outlettype" : [ "" ],
					"patching_rect" : [ 31.999984741210938, 610.0, 514.0, 35.0 ],
					"text" : "pattern\\\":{\\\"376\\\":{\\\"0\\\":\\\"lines\\\"\\,\\\"1\\\":\\\"0\\\"\\,\\\"2\\\":\\\"preset\\\"\\,\\\"3\\\":\\\"s\\\"\\,\\\"5\\\":0\\,\\\"4\\\":1}\\,\\\"663\\\":{\\\"0\\\":\\\"lines\\\"\\,\\\"1\\\":\\\"0\\\"\\,\\\"2\\\":\\\"preset\\\"\\,\\\"3\\\":\\\"s\\\"\\,\\\"5\\\":1\\,\\\"4\\\":1}}}}]}"
				}

			}
, 			{
				"box" : 				{
					"id" : "obj-14",
					"linecount" : 2,
					"maxclass" : "message",
					"numinlets" : 2,
					"numoutlets" : 1,
					"outlettype" : [ "" ],
					"patching_rect" : [ 40.523284912109375, 561.0, 508.0, 35.0 ],
					"text" : "pattern\\\":{\\\"376\\\":{\\\"0\\\":\\\"lines\\\"\\,\\\"1\\\":\\\"0\\\"\\,\\\"2\\\":\\\"preset\\\"\\,\\\"3\\\":\\\"s\\\"\\,\\\"5\\\":0\\,\\\"4\\\":1}\\,\\\"663\\\":{\\\"0\\\":\\\"lines\\\"\\,\\\"1\\\":\\\"0\\\"\\,\\\"2\\\":\\\"preset\\\"\\,\\\"3\\\":\\\"s\\\"\\,\\\"5\\\":1\\,\\\"4\\\":1}}}}"
				}

			}
, 			{
				"box" : 				{
					"id" : "obj-11",
					"linecount" : 17,
					"maxclass" : "message",
					"numinlets" : 2,
					"numoutlets" : 1,
					"outlettype" : [ "" ],
					"patching_rect" : [ 40.523284912109375, 297.0, 423.04656982421875, 236.0 ],
					"text" : "[{\\\"menu\\\":0\\,\\\"send\\\":[]\\,\\\"pat\\\":{\\\"v\\\":0\\,\\\"time\\\":0\\,\\\"pattern\\\":{}}\\,\\\"presets\\\":[{\\\"r\\\":0\\,\\\"m\\\":0\\,\\\"rev\\\":0\\,\\\"s\\\":2\\,\\\"buf\\\":0\\,\\\"pat\\\":{\\\"v\\\":0\\,\\\"time\\\":0\\,\\\"pattern\\\":{}}}]}\\,{\\\"menu\\\":0\\,\\\"send\\\":[]\\,\\\"pat\\\":{\\\"v\\\":0\\,\\\"time\\\":0\\,\\\"pattern\\\":{}}\\,\\\"presets\\\":[{\\\"r\\\":0\\,\\\"m\\\":0\\,\\\"rev\\\":0\\,\\\"s\\\":2\\,\\\"buf\\\":1\\,\\\"pat\\\":{\\\"v\\\":0\\,\\\"time\\\":0\\,\\\"pattern\\\":{}}}]}\\,{\\\"menu\\\":0\\,\\\"send\\\":[]\\,\\\"pat\\\":{\\\"v\\\":0\\,\\\"time\\\":0\\,\\\"pattern\\\":{}}\\,\\\"presets\\\":[{\\\"r\\\":0\\,\\\"m\\\":0\\,\\\"rev\\\":0\\,\\\"s\\\":2\\,\\\"buf\\\":2\\,\\\"pat\\\":{\\\"v\\\":0\\,\\\"time\\\":0\\,\\\"pattern\\\":{}}}]}\\,{\\\"menu\\\":0\\,\\\"send\\\":[]\\,\\\"pat\\\":{\\\"v\\\":0\\,\\\"time\\\":0\\,\\\"pattern\\\":{}}\\,\\\"presets\\\":[{\\\"r\\\":0\\,\\\"m\\\":0\\,\\\"rev\\\":0\\,\\\"s\\\":2\\,\\\"buf\\\":3\\,\\\"pat\\\":{\\\"v\\\":0\\,\\\"time\\\":0\\,\\\"pattern\\\":{}}}]}\\,{\\\"menu\\\":0\\,\\\"send\\\":[]\\,\\\"pat\\\":{\\\"v\\\":0\\,\\\"time\\\":0\\,\\\"pattern\\\":{}}\\,\\\"presets\\\":[{\\\"r\\\":0\\,\\\"m\\\":0\\,\\\"rev\\\":0\\,\\\"s\\\":2\\,\\\"buf\\\":0\\,\\\"pat\\\":{\\\"v\\\":0\\,\\\"time\\\":0\\,\\\"pattern\\\":{}}}]}\\,{\\\"menu\\\":0\\,\\\"send\\\":[]\\,\\\"pat\\\":{\\\"v\\\":0\\,\\\"time\\\":0\\,\\\"pattern\\\":{}}\\,\\\"presets\\\":[{\\\"r\\\":0\\,\\\"m\\\":0\\,\\\"rev\\\":0\\,\\\"s\\\":2\\,\\\"buf\\\":1\\,\\\"pat\\\":{\\\"v\\\":0\\,\\\"time\\\":0\\,\\\"pattern\\\":{}}}]}\\,{\\\"menu\\\":0\\,\\\"send\\\":[]\\,\\\"pat\\\":{\\\"v\\\":0\\,\\\"time\\\":0\\,\\\"pattern\\\":{}}\\,\\\"presets\\\":[{\\\"r\\\":0\\,\\\"m\\\":0\\,\\\"rev\\\":0\\,\\\"s\\\":2\\,\\\"buf\\\":2\\,\\\"pat\\\":{\\\"v\\\":0\\,\\\"time\\\":0\\,\\\"pattern\\\":{}}}]}\\,{\\\"menu\\\":0\\,\\\"send\\\":[]\\,\\\"pat\\\":{\\\"v\\\":0\\,\\\"time\\\":0\\,\\\"pattern\\\":{}}\\,\\\"presets\\\":[{\\\"r\\\":0\\,\\\"m\\\":0\\,\\\"rev\\\":0\\,\\\"s\\\":2\\,\\\"buf\\\":3\\,\\\"pat\\\":{\\\"v\\\":0\\,\\\"time\\\":0\\,\\\"pattern\\\":{}}}]}] jsobject -1407374883553280 2"
				}

			}
, 			{
				"box" : 				{
					"id" : "obj-81",
					"maxclass" : "newobj",
					"numinlets" : 1,
					"numoutlets" : 1,
					"outlettype" : [ "signal" ],
					"patching_rect" : [ 1102.046630859375, 348.0, 100.0, 22.0 ],
					"text" : "softcut~ anach_0"
				}

			}
, 			{
				"box" : 				{
					"id" : "obj-82",
					"maxclass" : "newobj",
					"numinlets" : 1,
					"numoutlets" : 1,
					"outlettype" : [ "signal" ],
					"patching_rect" : [ 1102.046630859375, 316.0, 100.0, 22.0 ],
					"text" : "softcut~ anach_0"
				}

			}
, 			{
				"box" : 				{
					"id" : "obj-83",
					"maxclass" : "newobj",
					"numinlets" : 1,
					"numoutlets" : 1,
					"outlettype" : [ "signal" ],
					"patching_rect" : [ 1102.046630859375, 288.0, 100.0, 22.0 ],
					"text" : "softcut~ anach_0"
				}

			}
, 			{
				"box" : 				{
					"id" : "obj-84",
					"maxclass" : "newobj",
					"numinlets" : 1,
					"numoutlets" : 1,
					"outlettype" : [ "signal" ],
					"patching_rect" : [ 1102.046630859375, 258.0, 100.0, 22.0 ],
					"text" : "softcut~ anach_0"
				}

			}
, 			{
				"box" : 				{
					"id" : "obj-73",
					"maxclass" : "newobj",
					"numinlets" : 1,
					"numoutlets" : 1,
					"outlettype" : [ "signal" ],
					"patching_rect" : [ 984.04656982421875, 348.0, 100.0, 22.0 ],
					"text" : "softcut~ anach_0"
				}

			}
, 			{
				"box" : 				{
					"id" : "obj-74",
					"maxclass" : "newobj",
					"numinlets" : 1,
					"numoutlets" : 1,
					"outlettype" : [ "signal" ],
					"patching_rect" : [ 984.04656982421875, 316.0, 100.0, 22.0 ],
					"text" : "softcut~ anach_0"
				}

			}
, 			{
				"box" : 				{
					"id" : "obj-75",
					"maxclass" : "newobj",
					"numinlets" : 1,
					"numoutlets" : 1,
					"outlettype" : [ "signal" ],
					"patching_rect" : [ 984.04656982421875, 288.0, 100.0, 22.0 ],
					"text" : "softcut~ anach_0"
				}

			}
, 			{
				"box" : 				{
					"id" : "obj-76",
					"maxclass" : "newobj",
					"numinlets" : 1,
					"numoutlets" : 1,
					"outlettype" : [ "signal" ],
					"patching_rect" : [ 984.04656982421875, 258.0, 100.0, 22.0 ],
					"text" : "softcut~ anach_0"
				}

			}
, 			{
				"box" : 				{
					"id" : "obj-44",
					"maxclass" : "newobj",
					"numinlets" : 1,
					"numoutlets" : 1,
					"outlettype" : [ "signal" ],
					"patching_rect" : [ 870.04656982421875, 258.0, 100.0, 22.0 ],
					"text" : "softcut~ anach_0"
				}

			}
, 			{
				"box" : 				{
					"id" : "obj-52",
					"maxclass" : "newobj",
					"numinlets" : 1,
					"numoutlets" : 1,
					"outlettype" : [ "signal" ],
					"patching_rect" : [ 754.04656982421875, 258.0, 100.0, 22.0 ],
					"text" : "softcut~ anach_0"
				}

			}
, 			{
				"box" : 				{
					"id" : "obj-60",
					"maxclass" : "newobj",
					"numinlets" : 1,
					"numoutlets" : 1,
					"outlettype" : [ "signal" ],
					"patching_rect" : [ 633.04656982421875, 258.0, 100.0, 22.0 ],
					"text" : "softcut~ anach_0"
				}

			}
, 			{
				"box" : 				{
					"id" : "obj-68",
					"maxclass" : "newobj",
					"numinlets" : 1,
					"numoutlets" : 1,
					"outlettype" : [ "signal" ],
					"patching_rect" : [ 517.04656982421875, 258.0, 100.0, 22.0 ],
					"text" : "softcut~ anach_0"
				}

			}
, 			{
				"box" : 				{
					"id" : "obj-36",
					"maxclass" : "newobj",
					"numinlets" : 1,
					"numoutlets" : 1,
					"outlettype" : [ "signal" ],
					"patching_rect" : [ 399.04656982421875, 258.0, 100.0, 22.0 ],
					"text" : "softcut~ anach_0"
				}

			}
, 			{
				"box" : 				{
					"id" : "obj-28",
					"maxclass" : "newobj",
					"numinlets" : 1,
					"numoutlets" : 1,
					"outlettype" : [ "signal" ],
					"patching_rect" : [ 283.04656982421875, 258.0, 100.0, 22.0 ],
					"text" : "softcut~ anach_0"
				}

			}
, 			{
				"box" : 				{
					"id" : "obj-20",
					"maxclass" : "newobj",
					"numinlets" : 1,
					"numoutlets" : 1,
					"outlettype" : [ "signal" ],
					"patching_rect" : [ 162.046585083007812, 258.0, 100.0, 22.0 ],
					"text" : "softcut~ anach_0"
				}

			}
, 			{
				"box" : 				{
					"id" : "obj-3",
					"maxclass" : "newobj",
					"numinlets" : 1,
					"numoutlets" : 1,
					"outlettype" : [ "signal" ],
					"patching_rect" : [ 46.046585083007812, 258.0, 100.0, 22.0 ],
					"text" : "softcut~ anach_0"
				}

			}
, 			{
				"box" : 				{
					"id" : "obj-1",
					"maxclass" : "newobj",
					"numinlets" : 1,
					"numoutlets" : 2,
					"outlettype" : [ "float", "bang" ],
					"patching_rect" : [ 288.0, 27.0, 139.0, 22.0 ],
					"text" : "buffer~ anach_0 600000"
				}

			}
, 			{
				"box" : 				{
					"bgmode" : 0,
					"border" : 0,
					"clickthrough" : 0,
					"enablehscroll" : 0,
					"enablevscroll" : 0,
					"id" : "obj-2",
					"lockeddragscroll" : 0,
					"maxclass" : "bpatcher",
					"name" : "grid-js.maxpat",
					"numinlets" : 1,
					"numoutlets" : 1,
					"offset" : [ 0.0, 0.0 ],
					"outlettype" : [ "" ],
					"patching_rect" : [ 46.046585083007812, 128.0, 120.0, 19.0 ],
					"viewvisibility" : 1
				}

			}
, 			{
				"box" : 				{
					"id" : "obj-9",
					"maxclass" : "message",
					"numinlets" : 2,
					"numoutlets" : 1,
					"outlettype" : [ "" ],
					"patching_rect" : [ 46.046585083007812, 59.0, 50.0, 22.0 ],
					"text" : "compile"
				}

			}
, 			{
				"box" : 				{
					"id" : "obj-5",
					"maxclass" : "message",
					"numinlets" : 2,
					"numoutlets" : 1,
					"outlettype" : [ "" ],
					"patching_rect" : [ 131.046585083007812, 59.0, 35.0, 22.0 ],
					"text" : "open"
				}

			}
 ],
		"lines" : [ 			{
				"patchline" : 				{
					"destination" : [ "obj-11", 1 ],
					"source" : [ "obj-2", 0 ]
				}

			}
, 			{
				"patchline" : 				{
					"destination" : [ "obj-2", 0 ],
					"source" : [ "obj-5", 0 ]
				}

			}
, 			{
				"patchline" : 				{
					"destination" : [ "obj-2", 0 ],
					"source" : [ "obj-9", 0 ]
				}

			}
 ],
		"dependency_cache" : [ 			{
				"name" : "grid-js.maxpat",
				"bootpath" : "~/Documents/code/anachronism",
				"patcherrelativepath" : ".",
				"type" : "JSON",
				"implicit" : 1
			}
, 			{
				"name" : "script.js",
				"bootpath" : "~/Documents/code/anachronism",
				"patcherrelativepath" : ".",
				"type" : "TEXT",
				"implicit" : 1
			}
, 			{
				"name" : "softcut~.mxo",
				"type" : "iLaX"
			}
 ],
		"autosave" : 0
	}

}
